<?xml version="1.0" encoding="UTF-8" standalone="no"?>
<svg
   xmlns:dc="http://purl.org/dc/elements/1.1/"
   xmlns:cc="http://creativecommons.org/ns#"
   xmlns:rdf="http://www.w3.org/1999/02/22-rdf-syntax-ns#"
   xmlns:svg="http://www.w3.org/2000/svg"
   xmlns="http://www.w3.org/2000/svg"
   id="svg8"
   version="1.1"
   viewBox="0 0 210 297"
   height="297mm"
   width="210mm">
  <defs
     id="defs2" />
  <metadata
     id="metadata5">
    <rdf:RDF>
      <cc:Work
         rdf:about="">
        <dc:format>image/svg+xml</dc:format>
        <dc:type
           rdf:resource="http://purl.org/dc/dcmitype/StillImage" />
        <dc:title></dc:title>
      </cc:Work>
    </rdf:RDF>
  </metadata>
  <g
     id="layer1">
    <path
       id="path3691"
       d="m 18.142857,69.080355 0.09449,134.937495 H 195.03571 V 69.118153 Z"
       style="fill:none;stroke:#000000;stroke-width:0.26458332px;stroke-linecap:butt;stroke-linejoin:miter;stroke-opacity:1" />
    <path
       id="path3697"
       d="m 89.202381,69.080355 c 2.005531,-22.379702 33.854419,-23.597154 34.962799,0.0945"
       style="fill:none;stroke:#000000;stroke-width:0.26458332px;stroke-linecap:butt;stroke-linejoin:miter;stroke-opacity:1" />
    <path
       id="path3697-9"
       d="m 91.083845,69.128658 c 1.811343,-19.857905 30.576435,-20.938172 31.577505,0.08385"
       style="fill:none;stroke:#000000;stroke-width:0.23685786px;stroke-linecap:butt;stroke-linejoin:miter;stroke-opacity:1" />
    <path
       id="path3697-9-5"
       d="m 92.956077,69.106226 c 1.58479,-17.569746 26.752083,-18.525537 27.627943,0.0742"
       style="fill:none;stroke:#000000;stroke-width:0.20839591px;stroke-linecap:butt;stroke-linejoin:miter;stroke-opacity:1" />
    <path
       id="path3697-9-5-3"
       d="M 95.024002,69.152531 C 96.387639,53.653183 118.0429,52.810022 118.79653,69.217987"
       style="fill:none;stroke:#000000;stroke-width:0.18156268px;stroke-linecap:butt;stroke-linejoin:miter;stroke-opacity:1" />
    <path
       id="path3697-9-5-3-2"
       d="M 96.799472,69.126136 C 97.963937,55.925313 116.45624,55.20719 117.0998,69.18189"
       style="fill:none;stroke:#000000;stroke-width:0.15484038px;stroke-linecap:butt;stroke-linejoin:miter;stroke-opacity:1" />
    <path
       id="path3697-9-5-3-2-8"
       d="m 98.487814,69.178073 c 0.970292,-10.611191 16.379106,-11.188438 16.915356,0.04481"
       style="fill:none;stroke:#000000;stroke-width:0.1267228px;stroke-linecap:butt;stroke-linejoin:miter;stroke-opacity:1" />
    <path
       id="path3774"
       d="m 56.50744,158.28274 0.151191,-47.7762 -32.657143,0.1512 0.188988,47.625 z"
       style="fill:none;stroke:#000000;stroke-width:0.26458332px;stroke-linecap:butt;stroke-linejoin:miter;stroke-opacity:1" />
    <path
       id="path3776"
       d="m 24.001488,162.62946 -0.151191,35.57562 60.211608,0.14313 0.110706,-35.64046 z"
       style="fill:none;stroke:#000000;stroke-width:0.26458332px;stroke-linecap:butt;stroke-linejoin:miter;stroke-opacity:1" />
    <path
       id="path3780"
       d="m 130.40178,198.34819 -0.18898,-36.81488 59.53125,0.0378 0.37797,36.6259 z"
       style="fill:none;stroke:#000000;stroke-width:0.26458332px;stroke-linecap:butt;stroke-linejoin:miter;stroke-opacity:1" />
    <path
       id="path3782"
       d="m 157.27589,157.79137 -0.0378,-47.13363 32.65715,0.18899 -0.1512,46.90684 z"
       style="fill:none;stroke:#000000;stroke-width:0.26458332px;stroke-linecap:butt;stroke-linejoin:miter;stroke-opacity:1" />
    <path
       id="path3784"
       d="m 157.61607,74.183037 v 31.750003 l 32.31696,0.18899 0.1512,-32.127982 z"
       style="fill:none;stroke:#000000;stroke-width:0.26458332px;stroke-linecap:butt;stroke-linejoin:miter;stroke-opacity:1" />
    <path
       id="path3786"
       d="m 77.333926,156.77083 0.151191,-36.09673 11.868455,-0.18898 0.188986,-8.50447 35.907742,-0.18899 -0.15119,8.92024 10.73452,0.18899 0.0378,36.05893 z"
       style="fill:none;stroke:#000000;stroke-width:0.26458332px;stroke-linecap:butt;stroke-linejoin:miter;stroke-opacity:1" />
    <path
       id="path3788"
       d="M 23.8125,106.68899 V 73.994046 l 32.411458,0.188988 0.09449,32.657146 z"
       style="fill:none;stroke:#000000;stroke-width:0.26458332px;stroke-linecap:butt;stroke-linejoin:miter;stroke-opacity:1" />
    <path
       id="path3790"
       d="m 99.9747,112.07515 v -5.95313 l -25.513392,-0.18899"
       style="fill:none;stroke:#000000;stroke-width:0.26458332px;stroke-linecap:butt;stroke-linejoin:miter;stroke-opacity:1" />
    <path
       id="path3792"
       d="m 114.24331,111.88616 v -5.76414 l 25.04092,0.18898"
       style="fill:none;stroke:#000000;stroke-width:0.26458332px;stroke-linecap:butt;stroke-linejoin:miter;stroke-opacity:1" />
    <path
       id="path3794"
       d="m 74.177827,69.269343 0.0945,7.087054 -4.724705,0.0945 v 2.267855"
       style="fill:none;stroke:#000000;stroke-width:0.26458332px;stroke-linecap:butt;stroke-linejoin:miter;stroke-opacity:1" />
    <path
       id="path3796"
       d="m 139.85119,69.269345 v 7.181548 h 4.15774 v 2.267855"
       style="fill:none;stroke:#000000;stroke-width:0.26458332px;stroke-linecap:butt;stroke-linejoin:miter;stroke-opacity:1" />
    <path
       id="path3798"
       d="m 74.461308,105.93303 -4.724701,-0.75595 v -2.07887"
       style="fill:none;stroke:#000000;stroke-width:0.26458332px;stroke-linecap:butt;stroke-linejoin:miter;stroke-opacity:1" />
    <path
       id="path3800"
       d="m 139.28422,106.31101 4.53572,-1.13393 v -1.88988"
       style="fill:none;stroke:#000000;stroke-width:0.26458332px;stroke-linecap:butt;stroke-linejoin:miter;stroke-opacity:1" />
    <path
       id="path3802"
       d="m 69.547617,78.718748 c -11.858169,2.7986 -14.492999,19.445418 0.18899,24.379462"
       style="fill:none;stroke:#000000;stroke-width:0.26458332px;stroke-linecap:butt;stroke-linejoin:miter;stroke-opacity:1" />
    <path
       id="path3802-2"
       d="m 143.81994,103.2872 c 11.85817,-2.7986 14.87098,-19.634408 0.18899,-24.568452"
       style="fill:none;stroke:#000000;stroke-width:0.26458332px;stroke-linecap:butt;stroke-linejoin:miter;stroke-opacity:1" />
    <path
       id="path3819"
       d="m 90.492224,156.92072 -0.0054,41.16487 33.916366,0.2619 -0.2619,-41.56041"
       style="fill:none;stroke:#000000;stroke-width:0.26458332px;stroke-linecap:butt;stroke-linejoin:miter;stroke-opacity:1" />
  </g>
</svg>
